# 3ds Max Wavefront OBJ Exporter v0.97b - (c)2007 guruware
# File Created: 21.05.2015 05:42:58

#
# object Plane002
#

v  -11.00 -2.00 -0.00
v  -13.00 -2.00 -2.00
v  -13.00 0.00 -0.00
v  -5.00 -2.00 6.00
v  -5.00 0.00 8.00
v  -3.00 -2.00 8.00
v  -13.00 -2.84 -1.52
v  -13.00 -32.00 -1.52
v  -13.00 -32.00 8.00
v  -13.00 0.00 8.00
v  -3.48 -32.00 8.00
v  -3.50 -2.84 8.00
v  -15.00 -35.97 10.00
v  -5.48 -35.97 10.00
v  -15.00 -35.97 0.48
v  -13.32 -32.64 -2.00
v  -15.00 -35.97 -2.00
v  -15.00 -35.97 -0.29
v  -11.00 -2.00 6.00
v  -11.00 -2.00 -2.00
v  -3.00 -2.00 6.00
v  -3.00 -35.97 6.00
v  -11.00 -35.97 -2.00
v  -5.00 -25.81 6.00
v  -11.00 -25.81 6.00
v  -11.00 -25.81 -0.00
v  -3.00 -2.84 7.00
v  -12.00 -32.00 -2.00
v  -14.00 -35.97 0.09
v  -3.00 -32.64 8.32
v  -3.00 -32.00 7.00
v  -5.09 -35.97 9.00
v  -4.71 -35.97 10.00
v  -12.00 -2.84 -2.00
v  -3.00 -35.97 10.00
# 35 vertices

vn 0.58 0.58 -0.58
vn -1.00 0.00 -0.00
vn 0.00 0.00 1.00
vn 0.00 0.45 0.89
vn -0.89 0.45 -0.00
vn 0.71 0.71 -0.00
vn 0.00 0.71 -0.71
vn 0.71 0.00 -0.71
vn 0.00 0.00 -1.00
vn -0.71 0.00 0.71
vn 1.00 0.00 -0.00
vn 0.79 -0.47 0.39
vn -0.35 -0.30 -0.89
vn -0.42 -0.23 -0.88
vn -0.79 0.55 0.27
vn -0.78 0.55 0.30
vn -0.43 0.00 -0.90
vn 0.90 0.00 0.43
vn 0.89 0.00 0.45
vn -0.30 0.55 0.78
vn -0.27 0.55 0.79
vn 0.88 -0.23 0.42
vn 0.89 -0.30 0.35
vn -0.39 -0.46 -0.80
vn 0.00 1.00 -0.00
# 25 vertex normals

g Plane002
f -35//-25 -34//-25 -33//-25 
f -32//-25 -31//-25 -30//-25 
f -33//-24 -34//-24 -29//-24 
f -29//-24 -28//-24 -27//-24 
f -33//-24 -29//-24 -27//-24 
f -26//-24 -33//-24 -27//-24 
f -31//-23 -26//-23 -27//-23 
f -27//-23 -25//-23 -24//-23 
f -31//-23 -27//-23 -24//-23 
f -30//-23 -31//-23 -24//-23 
f -25//-22 -27//-22 -23//-22 
f -23//-22 -22//-22 -25//-22 
f -27//-21 -28//-21 -21//-21 
f -21//-21 -23//-21 -27//-21 
f -20//-21 -19//-21 -18//-21 
f -33//-20 -26//-20 -17//-20 
f -17//-20 -35//-20 -33//-20 
f -17//-19 -26//-19 -31//-19 
f -31//-19 -32//-19 -17//-19 
f -16//-18 -15//-18 -14//-18 
f -14//-18 -13//-18 -16//-18 
f -17//-17 -32//-17 -12//-17 
f -12//-17 -11//-17 -17//-17 
f -32//-16 -35//-16 -10//-16 
f -10//-16 -12//-16 -32//-16 
f -35//-15 -17//-15 -11//-15 
f -11//-15 -10//-15 -35//-15 
f -30//-14 -24//-14 -9//-14 
f -8//-13 -7//-13 -21//-13 
f -21//-12 -28//-12 -8//-12 
f -6//-11 -5//-11 -4//-11 
f -4//-10 -3//-10 -6//-10 
f -2//-9 -8//-9 -28//-9 
f -28//-9 -29//-9 -2//-9 
f -24//-8 -25//-8 -5//-8 
f -5//-7 -9//-7 -24//-7 
f -20//-6 -18//-6 -7//-6 
f -7//-5 -8//-5 -20//-5 
f -5//-4 -25//-4 -22//-4 
f -22//-3 -4//-3 -5//-3 
f -2//-2 -29//-2 -34//-2 
f -6//-22 -3//-22 -1//-22 
f -32//-1 -30//-1 -15//-1 
f -32//-1 -15//-1 -16//-1 
f -35//-1 -32//-1 -16//-1 
f -34//-1 -35//-1 -16//-1 
f -13//-17 -19//-17 -20//-17 
f -2//-17 -34//-17 -16//-17 
f -8//-17 -2//-17 -16//-17 
f -8//-17 -16//-17 -13//-17 
f -20//-17 -8//-17 -13//-17 
f -5//-15 -6//-15 -1//-15 
f -5//-15 -1//-15 -14//-15 
f -15//-15 -30//-15 -9//-15 
f -14//-15 -15//-15 -9//-15 
f -5//-15 -14//-15 -9//-15 
f -12//-1 -10//-1 -11//-1 
# 57 faces

