<?xml version="1.0" encoding="utf-8"?>
<!-- Generator: Adobe Illustrator 16.0.2, SVG Export Plug-In . SVG Version: 6.00 Build 0)  -->
<!DOCTYPE svg PUBLIC "-//W3C//DTD SVG 1.1//EN" "http://www.w3.org/Graphics/SVG/1.1/DTD/svg11.dtd">
<svg version="1.1" id="Layer_1" xmlns="http://www.w3.org/2000/svg" xmlns:xlink="http://www.w3.org/1999/xlink" x="0px" y="0px"
	 width="50px" height="50px" viewBox="0 0 50 50" enable-background="new 0 0 50 50" xml:space="preserve">
<g>
	<path fill="#BCD255" d="M25.9,42.9c-2.9-0.3-3.5,2.6-3.4,3.3C22,44.6,23,42,25.3,42.3C25.3,42.3,25.9,42.9,25.9,42.9z"/>
	<linearGradient id="SVGID_1_" gradientUnits="userSpaceOnUse" x1="48.7617" y1="27.3936" x2="25.5264" y2="42.1247">
		<stop  offset="0" style="stop-color:#7AA93F"/>
		<stop  offset="1" style="stop-color:#BCD255"/>
	</linearGradient>
	<path fill="url(#SVGID_1_)" d="M39.6,24.5c-0.1,2.4-0.3,4.7-0.7,6.8L44,28l-5.5,4.3c-0.9,3.6-2.4,6.5-4.7,8.1c-2,1.4-4,2-6.2,2
		c0,0,0,0,0,0c-0.8,0-1.6-0.1-2.4-0.3c1.7,2,3.8,3.4,7,3.2c6.7-0.3,13.8-12.2,16.1-20.8C45.7,24.4,42.7,24.3,39.6,24.5z"/>
</g>
<g>
	<linearGradient id="SVGID_2_" gradientUnits="userSpaceOnUse" x1="32.2139" y1="15.6455" x2="28.8799" y2="36.812">
		<stop  offset="0" style="stop-color:#BF6732"/>
		<stop  offset="1" style="stop-color:#BDB120"/>
	</linearGradient>
	<path fill="url(#SVGID_2_)" d="M36.2,7c-3.5,1.6-7.4,3.9-10.9,6.7c1.6,3.2,2.8,6.5,3.5,9.7l4-7.5l-3.6,9.6c0.5,3.3,0.2,6.4-1.2,8.7
		c-2,3.5-4.9,4.9-7.6,5.5c0.2,0.1,0.5,0.2,0.8,0.4C25,41.8,29,42.5,33,39.7C39.8,34.9,39.5,17.6,36.2,7z"/>
	<path fill="#D1DE47" d="M21.3,40.1c-0.1,0.1-0.2,0.3-0.3,0.4c-0.2,0.3-0.4,0.7-0.6,1.1c-0.1,0.2-0.2,0.4-0.2,0.7
		c-0.1,0.2-0.1,0.5-0.2,0.7c0,0.2-0.1,0.5-0.1,0.7c0,0.2,0,0.5,0,0.7c0,0.5,0.1,0.9,0.1,1.3c0,0.4,0.2,0.7,0.2,0.9
		c0.1,0.2,0.1,0.3,0.1,0.3s0-0.1-0.1-0.3c-0.1-0.2-0.2-0.5-0.3-0.9c-0.1-0.4-0.2-0.8-0.2-1.3c0-0.2-0.1-0.5-0.1-0.8
		c0-0.3,0-0.5,0-0.8c0-0.3,0.1-0.5,0.1-0.8c0-0.3,0.1-0.5,0.2-0.7c0.1-0.5,0.3-0.9,0.5-1.3c0-0.1,0.1-0.2,0.2-0.3
		C20.5,39.8,21.3,40.1,21.3,40.1z"/>
</g>
<g>
	<g>
		<g>
			<linearGradient id="SVGID_3_" gradientUnits="userSpaceOnUse" x1="16.0679" y1="37.4189" x2="18.6514" y2="11.9189">
				<stop  offset="0" style="stop-color:#785A38"/>
				<stop  offset="1" style="stop-color:#341800"/>
			</linearGradient>
			<path fill="url(#SVGID_3_)" d="M17,23.5V10l1.5,21.6l8.9-8.9c-1.8-7-6.4-14.9-10.9-20.1c-2.9,3.3-5.8,7.8-8,12.4L17,23.5z"/>
		</g>
		<g>
			<linearGradient id="SVGID_4_" gradientUnits="userSpaceOnUse" x1="10.52" y1="36.8574" x2="13.1035" y2="11.3574">
				<stop  offset="0" style="stop-color:#785A38"/>
				<stop  offset="1" style="stop-color:#341800"/>
			</linearGradient>
			<path fill="url(#SVGID_4_)" d="M17,24.6l-8.9-8.9C5,22.5,3.6,29.5,6,33.7c2.5,4.3,6.4,5.2,10.5,5.2c0.2,0,0.3,0,0.5,0V24.6z"/>
		</g>
		<g>
			<linearGradient id="SVGID_5_" gradientUnits="userSpaceOnUse" x1="22.7017" y1="38.0918" x2="25.2852" y2="12.5918">
				<stop  offset="0" style="stop-color:#785A38"/>
				<stop  offset="1" style="stop-color:#341800"/>
			</linearGradient>
			<path fill="url(#SVGID_5_)" d="M18.6,32.9l0.4,5.8c3.2-0.4,6-1.7,8-5.1c1.5-2.5,1.5-6,0.7-9.8L18.6,32.9z"/>
		</g>
	</g>
	<path fill="#B09F7C" d="M17,37.9c0,0,0,0.2,0,0.5c0,0.3,0,0.7,0,1.2c0,0.5,0.1,1.1,0.1,1.8c0,0.6,0.2,1.3,0.3,2
		c0.1,0.7,0.3,1.4,0.4,2c0.2,0.6,0.4,1.2,0.5,1.7c0.4,1,0.7,1.6,0.7,1.6s-0.4-0.6-1-1.5c-0.2-0.5-0.5-1-0.8-1.7
		c-0.2-0.6-0.5-1.3-0.7-2c-0.2-0.7-0.4-1.4-0.5-2c-0.1-0.7-0.3-1.3-0.4-1.8c-0.1-0.5-0.2-1-0.2-1.3c0-0.3-0.1-0.5-0.1-0.5L17,37.9z"
		/>
</g>
</svg>
