# 3ds Max Wavefront OBJ Exporter v0.97b - (c)2007 guruware
# File Created: 02.06.2015 03:58:53

#
# object A001
#

v  4.855 18.912 4.855
v  -5.254 18.912 4.855
v  -5.254 18.912 -5.226
v  4.855 18.912 -5.226
v  4.855 -17.945 4.855
v  -2.802 -17.945 4.855
v  -2.802 16.081 4.855
v  -2.793 16.081 -2.754
v  4.855 -17.945 -2.766
v  4.855 16.081 -2.766
# 10 vertices

vn 0.000 1.000 -0.000
vn -0.000 -0.000 1.000
vn 0.000 -0.000 1.000
vn 0.000 0.000 1.000
vn -0.755 -0.656 -0.000
vn -0.756 -0.655 -0.001
vn 1.000 -0.000 -0.000
vn 1.000 0.000 -0.000
vn -0.000 -0.656 -0.755
vn -0.001 -0.658 -0.753
vn -0.705 -0.000 -0.709
vn -0.705 0.000 -0.709
vn -0.000 -1.000 -0.000
# 13 vertex normals

g A001
f 3//1 2//1 1//1 
f 1//1 4//1 3//1 
f 7//2 6//2 5//2 
f 1//3 2//3 7//3 
f 1//4 7//4 5//4 
f 2//5 3//5 8//5 
f 8//6 7//6 2//6 
f 1//7 5//7 9//7 
f 1//8 9//8 10//8 
f 4//7 1//7 10//7 
f 3//9 4//9 10//9 
f 10//10 8//10 3//10 
f 6//11 7//11 10//11 
f 10//11 9//12 6//11 
f 8//13 10//13 7//13 
# 15 faces

