# 3ds Max Wavefront OBJ Exporter v0.97b - (c)2007 guruware
# File Created: 02.06.2015 04:01:08

#
# object A001
#

v  -4.849 18.825 4.832
v  5.260 18.825 4.832
v  5.260 18.825 -5.249
v  -4.849 18.825 -5.249
v  -4.849 -18.032 4.832
v  2.808 -18.032 4.832
v  2.808 15.994 4.832
v  2.832 15.994 -2.780
v  -4.849 -18.032 -2.788
v  -4.849 15.994 -2.788
# 10 vertices

vn 0.000 1.000 -0.000
vn 0.000 -0.000 1.000
vn -0.000 -0.000 1.000
vn -0.000 0.000 1.000
vn 0.759 -0.651 -0.000
vn 0.756 -0.655 0.002
vn -1.000 -0.000 -0.000
vn -1.000 0.000 -0.000
vn 0.000 -0.656 -0.755
vn 0.001 -0.658 -0.753
vn 0.705 -0.000 -0.709
vn 0.705 0.000 -0.709
vn 0.000 -1.000 -0.000
# 13 vertex normals

g A001
f 1//1 2//1 3//1 
f 3//1 4//1 1//1 
f 5//2 6//2 7//2 
f 7//3 2//3 1//3 
f 5//4 7//4 1//4 
f 8//5 3//5 2//5 
f 2//6 7//6 8//6 
f 9//7 5//7 1//7 
f 10//8 9//8 1//8 
f 10//7 1//7 4//7 
f 10//9 4//9 3//9 
f 3//10 8//10 10//10 
f 10//11 7//11 6//11 
f 6//11 9//12 10//11 
f 7//13 10//13 8//13 
# 15 faces

