<?xml version="1.0" encoding="utf-8"?>
<!-- Generator: Adobe Illustrator 16.0.2, SVG Export Plug-In . SVG Version: 6.00 Build 0)  -->
<!DOCTYPE svg PUBLIC "-//W3C//DTD SVG 1.1//EN" "http://www.w3.org/Graphics/SVG/1.1/DTD/svg11.dtd">
<svg version="1.1" id="Layer_1" xmlns="http://www.w3.org/2000/svg" xmlns:xlink="http://www.w3.org/1999/xlink" x="0px" y="0px"
	 width="200px" height="200px" viewBox="0 0 200 200" enable-background="new 0 0 200 200" xml:space="preserve">
<radialGradient id="SVGID_1_" cx="33.2998" cy="39.2715" r="93.727" gradientUnits="userSpaceOnUse">
	<stop  offset="0.4947" style="stop-color:#FFFFE6"/>
	<stop  offset="1" style="stop-color:#FFFFCC"/>
</radialGradient>
<path fill="none" stroke="url(#SVGID_1_)" stroke-width="4" stroke-miterlimit="10" d="M120.8,69c0,11-9,20-20,20H61.3l-28,44.3
	L5.3,89h-39.5c-11,0-20-9-20-20V-36.5c0-11,9-20,20-20h135c11,0,20,9,20,20V69z"/>
<radialGradient id="SVGID_2_" cx="-448.356" cy="803.9189" r="93.4966" gradientTransform="matrix(-1 0 0 1 -359.4238 -741)" gradientUnits="userSpaceOnUse">
	<stop  offset="0" style="stop-color:#F9A12C"/>
	<stop  offset="0.2737" style="stop-color:#F7942C"/>
	<stop  offset="1" style="stop-color:#ED1C29"/>
</radialGradient>
<path fill="url(#SVGID_2_)" d="M79.9,71.6c15.1-10.3,15.9-32,5.3-49.7c-10.6-17.7-9.8-27.2-5-35.7C68.8-4.1,67,2.8,67.5,8.6
	c-6.3-0.5-9-7.1-10.6-17.2c-1.3-9.5-6.9-19-14.3-21.4C32.3-33.4,28-41.4,26.2-44.8c0.8,6.1,1.6,10.8,1.1,16.7
	C23.9-27,4.8-40.5-8.7-41.9c-13-1.3-20.1,1.1-20.1,1.1c8.7,1.3,23.8,7.4,16.1,29.1c-5,14.3-16.7,30.7,1.9,53.2
	C1.6,56.6,12,59,25.2,58.2C16.4,59.7,3.7,58.3-4.2,57C13,63.1,20.4,73.4,41,76.6C50,77.9,70.1,78.2,79.9,71.6z"/>
<path fill="#13110F" d="M1.1-21.8c2.1,6.6,9,10.8,26.7,18.3C48.7,5,54,16.9,58.8,29.6c0.5,1.3,1.1,2.4,1.3,3.4
	c-0.3-0.3-0.5-0.3-0.5-0.5C58.8,32,58,31.2,57,30.6c-0.9-0.6-2-1.4-3-1.9c-1.1-0.5-2.1-1.1-3.2-1.6c-0.5-0.3-1.1-0.5-1.6-0.8
	c-0.5-0.3-1.1-0.5-1.6-0.8c-1.1-0.5-2.1-1.1-3.4-1.3c-2.4-0.8-4.5-1.6-6.9-2.4c-2.4-0.8-4.5-1.6-6.9-2.4c-1.1-0.5-2.1-1.1-3.2-1.6
	c-1.1-0.5-2.1-1.1-2.9-1.6c-0.8-0.5-1.9-1.1-2.6-1.9c-0.8-0.8-1.6-1.3-2.4-2.1c-0.8-0.5-1.3-1.3-2.1-2.1c-0.5-0.8-1.3-1.3-1.9-2.1
	c-1.1-1.6-1.9-2.9-2.6-4.2c-0.8-1.3-1.3-2.4-1.9-3.4c-1-1.9-1.5-2.9-1.5-2.9s0.5,1.1,1.3,3.2c0.5,1.1,0.8,2.1,1.6,3.4
	c0.8,1.3,1.6,2.6,2.4,4.2c0.5,0.8,1.1,1.6,1.9,2.4c0.5,0.8,1.3,1.6,2.1,2.4c0.8,0.8,1.6,1.6,2.4,2.4s1.9,1.3,2.6,2.1
	c0.8,0.8,1.9,1.3,2.9,1.9c1.1,0.5,2.1,1.3,3.2,1.8c2.1,1.1,4.5,2.1,6.6,2.9c2.4,0.8,4.5,1.9,6.6,2.6c1.1,0.5,2.1,1.1,3.2,1.6
	c0.3,0.3,0.8,0.3,1.1,0.5c0,0,0,0,0.3,0C52,30.8,58.9,35,63.6,39.7c3.7,5.6,7.4,10.3,9.3,20.9l-1.3,0.5C66.6,46,57,41.8,50.4,41.3
	c-7.9-0.8-27.8-0.8-40.7-13.8C-2.1,15.2-3.7-6,1.1-21.8z"/>
</svg>
