<?xml version="1.0" encoding="utf-8"?>
<!-- Generator: Adobe Illustrator 16.0.2, SVG Export Plug-In . SVG Version: 6.00 Build 0)  -->
<!DOCTYPE svg PUBLIC "-//W3C//DTD SVG 1.1//EN" "http://www.w3.org/Graphics/SVG/1.1/DTD/svg11.dtd">
<svg version="1.1" id="Layer_1" xmlns="http://www.w3.org/2000/svg" xmlns:xlink="http://www.w3.org/1999/xlink" x="0px" y="0px"
	 width="200px" height="200px" viewBox="-66.8 -66.8 200 200" enable-background="new -66.8 -66.8 200 200" xml:space="preserve">
<path opacity="0.8" fill="#FFFFFF" d="M120.8,69c0,11-9,20-20,20H61.3l-28,44.3L5.3,89h-39.5c-11,0-20-9-20-20V-36.5
	c0-11,9-20,20-20h135c11,0,20,9,20,20V69z"/>
<path fill="none" stroke="#FFFFFF" stroke-width="7" stroke-miterlimit="10" d="M120.8,69c0,11-9,20-20,20H61.3l-28,44.3L5.3,89
	h-39.5c-11,0-20-9-20-20V-36.5c0-11,9-20,20-20h135c11,0,20,9,20,20V69z"/>
<radialGradient id="SVGID_1_" cx="-318.356" cy="-382.9189" r="93.4966" gradientTransform="matrix(-1 0 0 -1 -229.4238 -320)" gradientUnits="userSpaceOnUse">
	<stop  offset="0" style="stop-color:#F9A12C"/>
	<stop  offset="0.2737" style="stop-color:#F7942C"/>
	<stop  offset="1" style="stop-color:#ED1C29"/>
</radialGradient>
<path fill="url(#SVGID_1_)" d="M79.9,71.6c15.1-10.3,15.9-32,5.3-49.7c-10.6-17.7-9.8-27.2-5-35.7C68.8-4.1,67,2.8,67.5,8.6
	c-6.3-0.5-9-7.1-10.6-17.2c-1.3-9.5-6.9-19-14.3-21.4c-10.3-3.4-14.6-11.4-16.4-14.8c0.8,6.1,1.6,10.8,1.1,16.7
	c-3.4,1.1-22.5-12.4-36-13.8c-13-1.3-20.1,1.1-20.1,1.1c8.7,1.3,23.8,7.4,16.1,29.1c-5,14.3-16.7,30.7,1.9,53.2
	c12.4,15.1,22.8,17.5,36,16.7C16.4,59.7,3.7,58.3-4.2,57C13,63.1,20.4,73.4,41,76.6C50,77.9,70.1,78.2,79.9,71.6z"/>
<path fill="#13110F" d="M1.1-21.8c2.1,6.6,9,10.8,26.7,18.3c20.9,8.5,26.2,20.4,31,33.1c0.5,1.3,1.1,2.4,1.3,3.4
	c-0.3-0.3-0.5-0.3-0.5-0.5c-0.8-0.5-1.6-1.3-2.6-1.9C56.1,30,55,29.2,54,28.7c-1.1-0.5-2.1-1.1-3.2-1.6c-0.5-0.3-1.1-0.5-1.6-0.8
	c-0.5-0.3-1.1-0.5-1.6-0.8c-1.1-0.5-2.1-1.1-3.4-1.3c-2.4-0.8-4.5-1.6-6.9-2.4c-2.4-0.8-4.5-1.6-6.9-2.4c-1.1-0.5-2.1-1.1-3.2-1.6
	c-1.1-0.5-2.1-1.1-2.9-1.6c-0.8-0.5-1.9-1.1-2.6-1.9c-0.8-0.8-1.6-1.3-2.4-2.1c-0.8-0.5-1.3-1.3-2.1-2.1c-0.5-0.8-1.3-1.3-1.9-2.1
	c-1.1-1.6-1.9-2.9-2.6-4.2c-0.8-1.3-1.3-2.4-1.9-3.4C9.8-1.5,9.3-2.5,9.3-2.5s0.5,1.1,1.3,3.2c0.5,1.1,0.8,2.1,1.6,3.4
	c0.8,1.3,1.6,2.6,2.4,4.2c0.5,0.8,1.1,1.6,1.9,2.4c0.5,0.8,1.3,1.6,2.1,2.4c0.8,0.8,1.6,1.6,2.4,2.4c0.8,0.8,1.9,1.3,2.6,2.1
	c0.8,0.8,1.9,1.3,2.9,1.9c1.1,0.5,2.1,1.3,3.2,1.8c2.1,1.1,4.5,2.1,6.6,2.9c2.4,0.8,4.5,1.9,6.6,2.6c1.1,0.5,2.1,1.1,3.2,1.6
	c0.3,0.3,0.8,0.3,1.1,0.5c0,0,0,0,0.3,0c4.5,1.9,11.4,6.1,16.1,10.8c3.7,5.6,7.4,10.3,9.3,20.9l-1.3,0.5
	c-5-15.1-14.6-19.3-21.2-19.8c-7.9-0.8-27.8-0.8-40.7-13.8C-2.1,15.2-3.7-6,1.1-21.8z"/>
</svg>
