# 3ds Max Wavefront OBJ Exporter v0.97b - (c)2007 guruware
# File Created: 04.05.2015 20:51:35

#
# object Cylinder001
#

v  -0.0000 0.0103 -12.5144
v  -6.7755 14.1078 -5.2956
v  -0.0000 11.7275 -8.9971
v  -10.9140 -0.1262 -4.0043
v  -5.8593 -0.0100 3.1823
v  -7.4380 7.9954 4.2503
v  0.0000 -0.1110 7.4566
v  0.0000 5.8453 7.9159
v  -0.0000 18.5270 -4.1866
v  -9.9708 11.1640 2.8791
v  -7.1347 16.0340 5.1821
v  -7.9064 19.4278 2.9728
v  -10.4883 12.9694 0.3314
v  0.0000 10.2877 6.8361
v  -8.5978 19.5263 0.9834
v  -0.0000 21.8121 -0.9237
v  -5.0094 21.2287 5.5239
v  -6.6228 21.2928 4.7785
v  -2.3556 9.7358 12.6282
v  0.0000 13.0272 12.9366
v  -3.3400 14.1729 10.6913
v  -4.5841 20.4106 6.5248
v  0.0000 17.7023 9.8306
v  -0.0000 20.4106 6.5248
v  -0.0000 22.3622 3.6535
v  -2.9453 22.3090 3.8521
v  -6.3485 24.7569 5.4755
v  -3.7288 25.1565 5.7494
v  -4.8134 25.6693 5.1799
v  -4.8551 23.6522 6.4593
v  -3.7890 22.9217 2.4908
v  -5.7360 21.9714 2.7833
v  -10.6329 19.8303 1.7415
v  -7.9134 22.9433 3.9176
v  -9.9174 19.9495 3.7892
v  -8.8048 21.5929 5.0874
v  -11.2603 20.9014 3.1461
v  -10.1040 22.7486 4.5672
v  0.0000 8.4433 11.0563
v  -4.9714 11.0565 10.4013
v  0.0000 9.7279 12.6635
v  -12.2288 9.1168 1.3517
v  -11.9206 10.5921 2.0826
v  -10.9140 9.5078 -1.2629
v  -8.4295 7.5446 7.3035
v  -11.0002 3.6664 4.3506
v  -11.8866 8.1495 4.9640
v  -12.6161 6.3959 4.4635
v  -7.8795 3.9855 7.9633
v  -10.5672 6.5349 7.8175
v  -8.9264 4.6958 9.2926
v  -6.7886 5.7056 8.7787
v  -11.8072 5.0154 7.1592
v  -9.8792 3.5441 9.3254
v  -8.9704 2.5626 7.1479
v  -8.2069 3.0682 9.0324
v  -7.2321 4.4663 9.5096
v  -0.0000 23.0127 2.1847
v  0.0000 3.9759 15.6354
v  0.0000 6.6057 14.5461
v  -2.8101 3.9759 14.5461
v  0.0000 7.6950 11.9163
v  -2.8101 6.6057 11.9163
v  -3.8994 3.9759 11.9163
v  0.0000 1.3460 14.5461
v  -2.8101 1.3460 11.9163
v  0.0000 0.2567 11.9163
v  0.0000 3.9759 8.1971
v  -2.8101 3.9759 9.2864
v  0.0000 6.6057 9.2864
v  0.0000 1.3460 9.2864
v  6.7755 14.1078 -5.2956
v  10.9140 -0.1262 -4.0043
v  7.4380 7.9954 4.2503
v  5.8593 -0.0100 3.1823
v  9.9708 11.1640 2.8791
v  10.4883 12.9694 0.3314
v  7.9064 19.4278 2.9728
v  7.1347 16.0340 5.1821
v  8.5978 19.5263 0.9834
v  6.6228 21.2928 4.7785
v  5.0094 21.2287 5.5239
v  2.3556 9.7358 12.6282
v  3.3400 14.1729 10.6913
v  4.5841 20.4106 6.5248
v  2.9453 22.3090 3.8521
v  6.3485 24.7569 5.4755
v  4.8134 25.6693 5.1799
v  3.7288 25.1565 5.7494
v  4.8551 23.6522 6.4593
v  3.7890 22.9217 2.4908
v  5.7360 21.9714 2.7833
v  7.9134 22.9433 3.9176
v  10.6329 19.8303 1.7415
v  9.9174 19.9495 3.7892
v  8.8048 21.5929 5.0874
v  10.1040 22.7486 4.5672
v  11.2603 20.9014 3.1461
v  4.9714 11.0565 10.4013
v  12.2288 9.1168 1.3517
v  11.9206 10.5921 2.0826
v  10.9140 9.5078 -1.2629
v  11.0002 3.6664 4.3505
v  8.4295 7.5446 7.3035
v  11.8866 8.1495 4.9640
v  12.6161 6.3959 4.4635
v  7.8795 3.9855 7.9633
v  6.7886 5.7056 8.7787
v  8.9264 4.6958 9.2926
v  10.5673 6.5349 7.8175
v  9.8792 3.5441 9.3254
v  11.8072 5.0154 7.1592
v  8.9704 2.5626 7.1479
v  8.2069 3.0682 9.0324
v  7.2321 4.4663 9.5096
v  2.8101 3.9759 14.5461
v  2.8101 6.6057 11.9163
v  3.8994 3.9759 11.9163
v  2.8101 1.3460 11.9163
v  2.8101 3.9759 9.2864
# 120 vertices

vn -0.8199 0.1567 -0.5506
vn -0.4315 -0.2567 0.8648
vn -0.0780 -0.2361 0.9686
vn -0.7147 0.2908 -0.6361
vn -0.6073 -0.1050 0.7875
vn 0.1351 -0.1703 0.9761
vn -0.7948 0.3152 -0.5187
vn 0.0775 -0.3462 0.9350
vn -0.0908 -0.0923 0.9916
vn 0.4041 0.3878 0.8285
vn 0.4096 0.4755 0.7785
vn 0.4116 0.5066 0.7576
vn 0.2249 0.0934 0.9699
vn 0.9781 -0.0804 0.1921
vn 0.4433 0.3722 -0.8155
vn -0.8537 0.2508 -0.4564
vn -0.7123 -0.0865 0.6965
vn -0.9867 -0.0281 0.1600
vn -0.0836 -0.2487 0.9650
vn 0.2398 0.0729 0.9681
vn -0.6259 0.3540 -0.6949
vn -0.0181 -0.8141 0.5804
vn 0.5562 -0.3785 0.7399
vn 0.9307 0.3654 0.0126
vn -0.7525 0.3415 -0.5631
vn -0.4549 -0.4545 0.7658
vn -0.1118 -0.2705 0.9562
vn 0.6982 0.1813 0.6926
vn 0.7031 0.1801 0.6879
vn -0.8858 -0.4604 -0.0581
vn 0.0211 0.0371 0.9991
vn -0.4653 -0.0865 0.8809
vn 0.4720 -0.4475 0.7595
vn -0.1951 -0.1114 0.9744
vn -0.5028 -0.6138 0.6086
vn -0.9820 0.0284 0.1866
vn -0.1092 -0.2128 0.9710
vn -0.9982 0.0597 0.0004
vn -0.3432 0.1661 0.9245
vn -0.9952 0.0315 0.0932
vn 0.7191 0.0998 -0.6877
vn -0.1981 0.1646 0.9663
vn -0.8189 -0.0634 0.5704
vn -0.9712 -0.2194 0.0928
vn -0.9988 0.0484 -0.0007
vn -0.9945 0.0300 -0.1005
vn 0.3914 0.1853 -0.9014
vn 0.3501 0.1335 0.9271
vn -0.1981 -0.0923 0.9758
vn -0.5666 -0.4699 0.6769
vn -0.1197 0.3449 0.9310
vn -0.5938 -0.0659 0.8019
vn -0.7799 -0.3168 0.5397
vn 0.2451 0.1753 -0.9535
vn 0.4415 0.1129 -0.8901
vn 0.8195 -0.0493 -0.5709
vn 0.9858 0.1544 -0.0663
vn 0.6341 -0.1465 0.7592
vn 0.1256 -0.6241 0.7712
vn 0.4206 0.0943 0.9023
vn 0.1922 -0.6126 0.7667
vn 0.7970 -0.0075 -0.6040
vn -0.5188 -0.2474 0.8183
vn -0.4509 -0.0948 0.8875
vn -0.9442 0.0543 -0.3249
vn -0.8217 0.3483 -0.4510
vn -0.7945 0.3157 -0.5188
vn 0.3197 -0.8906 0.3236
vn 0.2429 0.7804 0.5761
vn 0.4843 -0.1684 0.8586
vn -0.5300 0.5881 -0.6109
vn 0.0583 -0.0390 0.9975
vn -0.5250 0.4430 0.7267
vn -0.4130 0.0736 0.9078
vn -0.7020 -0.0411 0.7109
vn 0.1423 -0.2948 0.9449
vn -0.5774 -0.2866 0.7645
vn -0.1761 -0.3908 0.9035
vn -0.0508 -0.5701 0.8200
vn -0.7853 0.1987 -0.5863
vn -0.9925 0.0520 0.1110
vn -0.9314 0.2253 -0.2858
vn -0.8391 0.4371 -0.3237
vn -0.8140 -0.0739 -0.5761
vn -0.7711 -0.6367 -0.0039
vn -0.9493 -0.2772 -0.1481
vn -0.9550 -0.2065 0.2131
vn -0.0858 0.2665 -0.9600
vn 0.9967 -0.0433 0.0683
vn 0.9022 -0.0896 0.4219
vn -0.2400 0.3617 -0.9009
vn 0.9859 0.1331 -0.1010
vn 0.7871 -0.0729 0.6124
vn -0.1072 0.4179 -0.9021
vn 0.8210 -0.2351 0.5204
vn 0.8956 0.0551 0.4415
vn 0.3399 0.4651 0.8174
vn 0.3144 0.4920 0.8118
vn 0.6780 0.1611 0.7172
vn -0.3104 -0.2729 0.9106
vn -0.9872 0.1584 -0.0177
vn -0.0112 0.3767 -0.9263
vn 0.9582 0.1631 -0.2351
vn 0.6335 0.2140 -0.7435
vn 0.9048 -0.1010 0.4138
vn 0.6736 0.1377 0.7262
vn -0.3477 0.3956 -0.8501
vn 0.6771 -0.7102 0.1927
vn 0.4257 -0.3980 0.8127
vn -0.5368 0.1462 0.8310
vn -0.1714 0.4283 -0.8872
vn 0.9700 -0.2416 -0.0288
vn 0.9164 -0.1169 0.3828
vn 0.1897 0.1053 0.9762
vn 0.1835 0.1025 0.9777
vn 0.4975 -0.2537 -0.8295
vn 0.8169 0.1560 0.5553
vn 0.9889 0.1308 0.0699
vn 0.4997 -0.4434 0.7441
vn 0.9377 0.0579 0.3427
vn 0.8981 -0.4045 -0.1727
vn 0.6407 0.2709 -0.7184
vn 0.9145 -0.0598 0.4001
vn 0.4861 0.2815 -0.8273
vn 0.9077 0.3530 0.2269
vn 0.5685 0.2651 -0.7788
vn -0.9572 -0.1507 0.2471
vn 0.8704 0.3243 0.3704
vn 0.9008 0.1935 -0.3886
vn 0.6124 0.0173 -0.7903
vn 0.4880 0.2706 -0.8299
vn 0.4065 0.2394 -0.8818
vn -0.9912 -0.0213 -0.1303
vn 0.5706 0.1665 0.8042
vn 0.9360 0.0772 0.3434
vn 0.9548 -0.2426 -0.1716
vn 0.7613 0.4765 0.4396
vn 0.9825 0.1697 -0.0772
vn 0.9125 -0.0639 -0.4041
vn -0.9595 -0.0047 -0.2817
vn -0.9907 -0.1011 -0.0915
vn -0.8763 -0.3027 0.3748
vn -0.5829 -0.0801 0.8086
vn 0.3509 -0.1889 0.9172
vn 0.7222 -0.5350 0.4384
vn 0.5234 0.1096 0.8450
vn 0.6825 -0.5393 0.4932
vn -0.9020 -0.2614 0.3435
vn 0.9994 -0.0205 -0.0284
vn 0.9891 0.1204 0.0844
vn 0.1881 0.2236 -0.9564
vn -0.0445 0.4645 -0.8845
vn -0.1075 0.4184 -0.9019
vn 0.3104 -0.8920 0.3287
vn 0.1855 0.7719 0.6081
vn 0.5138 -0.1640 0.8421
vn -0.3778 0.6108 -0.6958
vn 0.8140 0.0739 0.5761
vn 0.7711 0.6367 0.0039
vn 0.9493 0.2772 0.1480
vn 0.9550 0.2065 -0.2131
vn 0.7854 -0.1987 0.5863
vn 0.9925 -0.0520 -0.1110
vn 0.9314 -0.2253 0.2858
vn 0.8391 -0.4371 0.3237
vn -0.1423 0.2948 -0.9449
vn 0.5774 0.2866 -0.7645
vn 0.1761 0.3908 -0.9035
vn 0.0508 0.5701 -0.8200
vn -0.0583 0.0390 -0.9975
vn 0.5250 -0.4430 -0.7267
vn 0.4130 -0.0736 -0.9078
vn 0.7020 0.0411 -0.7109
# 173 vertex normals

vt 0.0091 0.7711 0.0000
vt 0.3851 0.8724 0.0000
vt 0.2908 0.9759 0.0000
vt 0.1000 0.6773 0.0000
vt 0.1492 0.4402 0.0000
vt 0.9710 0.3702 0.0000
vt 0.3665 0.4783 0.0000
vt 0.0540 0.2771 0.0000
vt 0.2472 0.2569 0.0000
vt 0.5251 0.9717 0.0000
vt 0.4454 0.7482 0.0000
vt 0.4449 0.6146 0.0000
vt 0.6122 0.5065 0.0000
vt 0.6238 0.7342 0.0000
vt 0.4102 0.2700 0.0000
vt 0.5882 0.8673 0.0000
vt 0.9152 0.0213 0.4878
vt 0.6556 0.9693 0.0000
vt 0.7251 0.7887 0.0000
vt 0.6812 0.8050 0.0000
vt 0.9515 0.0213 0.5288
vt 0.9764 0.0213 0.4602
vt 0.9152 0.1198 0.3120
vt 0.8782 0.1420 0.3864
vt 0.9515 0.1420 0.3915
vt 0.9437 0.4678 0.0000
vt 0.9776 0.5634 0.0000
vt 0.9146 0.1619 0.3890
vt 0.8304 0.0213 0.5577
vt 0.8736 0.5636 0.0000
vt 0.7443 0.7100 0.0000
vt 0.9174 0.7238 0.0000
vt 0.8214 0.8059 0.0000
vt 0.7456 0.8641 0.0000
vt 0.7852 0.9173 0.0000
vt 0.6893 0.8705 0.0000
vt 0.5958 0.8393 0.0000
vt 0.7017 0.8474 0.0000
vt 0.6222 0.7731 0.0000
vt 0.6679 0.8181 0.0000
vt 0.8980 0.3629 0.0000
vt 0.1159 0.0748 0.0000
vt 0.6305 0.8152 0.0000
vt 0.0989 0.1279 0.0000
vt 0.0150 0.1545 0.0000
vt 0.1169 0.1709 0.0000
vt 0.0596 0.0345 0.0000
vt 0.8791 0.2635 0.0000
vt 0.9721 0.2359 0.0000
vt 0.0218 0.9799 0.0000
vt 0.0245 0.9033 0.0000
vt 0.9093 0.1972 0.0000
vt 0.2196 0.1335 0.0000
vt 0.3100 0.1917 0.0000
vt 0.8742 0.2131 0.0000
vt 0.9410 0.1861 0.0000
vt 0.0602 0.9485 0.0000
vt 0.1209 0.9016 0.0000
vt 0.6911 0.8477 0.0000
vt 0.9361 0.4187 0.0000
vt 0.8385 0.4824 0.0000
vt 0.9812 0.4628 0.0000
vt 0.6501 0.2207 0.0000
vt 0.6501 0.3638 0.0000
vt 0.5066 0.2207 0.0000
vt 0.6501 0.4230 0.0000
vt 0.5066 0.3638 0.0000
vt 0.9025 0.9004 0.0000
vt 0.8467 0.9004 0.0000
vt 0.9025 0.9560 0.0000
vt 0.8235 0.9004 0.0000
vt 0.3594 0.7296 0.0000
vt 0.7119 0.9176 0.0000
vt 0.7513 0.9692 0.0000
vt 0.2451 0.0763 0.0000
vt 0.3194 0.0188 0.0000
vt 0.3294 0.1660 0.0000
vt 0.8178 0.3614 0.0000
vt 0.4171 0.1648 0.0000
vt 0.3977 0.1905 0.0000
vt 0.3422 0.1078 0.0000
vt 0.4382 0.1323 0.0000
vt 0.4211 0.0666 0.0000
vt 0.1445 0.9667 0.0000
vt 0.0314 0.8153 0.0000
vt 0.0561 0.8745 0.0000
vt 0.8304 0.1420 0.3177
vt 0.8529 0.0213 0.3916
vt 0.8782 0.0213 0.6062
vt 0.9764 0.1420 0.4602
vt 0.4472 0.2207 0.0000
vt 0.0091 0.7711 0.0000
vt 0.3851 0.8724 0.0000
vt 0.2908 0.9759 0.0000
vt 0.1000 0.6773 0.0000
vt 0.1492 0.4402 0.0000
vt 0.3665 0.4783 0.0000
vt 0.0540 0.2771 0.0000
vt 0.2472 0.2569 0.0000
vt 0.5251 0.9717 0.0000
vt 0.4454 0.7482 0.0000
vt 0.4449 0.6146 0.0000
vt 0.6122 0.5065 0.0000
vt 0.6245 0.7342 0.0000
vt 0.4102 0.2700 0.0000
vt 0.5882 0.8673 0.0000
vt 0.6556 0.9693 0.0000
vt 0.7258 0.7887 0.0000
vt 0.6819 0.8050 0.0000
vt 0.9437 0.4678 0.0000
vt 0.9776 0.5634 0.0000
vt 0.8736 0.5636 0.0000
vt 0.7443 0.7100 0.0000
vt 0.9174 0.7238 0.0000
vt 0.8214 0.8059 0.0000
vt 0.7456 0.8641 0.0000
vt 0.7852 0.9173 0.0000
vt 0.8782 0.1420 0.3864
vt 0.9515 0.1420 0.3915
vt 0.9146 0.1619 0.3890
vt 0.9152 0.0213 0.4878
vt 0.9515 0.0213 0.5288
vt 0.9152 0.1198 0.3120
vt 0.9764 0.0213 0.4602
vt 0.9764 0.1420 0.4602
vt 0.8304 0.0213 0.5577
vt 0.8529 0.0213 0.3916
vt 0.8304 0.1420 0.3177
vt 0.8782 0.0213 0.6062
vt 0.6893 0.8705 0.0000
vt 0.5958 0.8393 0.0000
vt 0.7017 0.8474 0.0000
vt 0.6222 0.7731 0.0000
vt 0.6679 0.8181 0.0000
vt 0.6305 0.8152 0.0000
vt 0.6911 0.8477 0.0000
vt 0.8178 0.3614 0.0000
vt 0.9361 0.4187 0.0000
vt 0.8385 0.4824 0.0000
vt 0.9812 0.4628 0.0000
vt 0.1159 0.0748 0.0000
vt 0.0989 0.1279 0.0000
vt 0.0150 0.1545 0.0000
vt 0.3594 0.7296 0.0000
vt 0.1169 0.1709 0.0000
vt 0.0596 0.0345 0.0000
vt 0.9710 0.3702 0.0000
vt 0.8980 0.3629 0.0000
vt 0.8791 0.2635 0.0000
vt 0.9721 0.2359 0.0000
vt 0.2196 0.1335 0.0000
vt 0.3100 0.1917 0.0000
vt 0.2451 0.0763 0.0000
vt 0.3194 0.0188 0.0000
vt 0.9093 0.1972 0.0000
vt 0.3294 0.1660 0.0000
vt 0.4171 0.1648 0.0000
vt 0.3977 0.1905 0.0000
vt 0.3422 0.1078 0.0000
vt 0.4382 0.1323 0.0000
vt 0.4211 0.0666 0.0000
vt 0.8742 0.2131 0.0000
vt 0.9410 0.1861 0.0000
vt 0.0218 0.9799 0.0000
vt 0.0245 0.9033 0.0000
vt 0.0602 0.9485 0.0000
vt 0.1209 0.9016 0.0000
vt 0.1445 0.9667 0.0000
vt 0.0314 0.8153 0.0000
vt 0.0561 0.8745 0.0000
vt 0.7119 0.9176 0.0000
vt 0.7513 0.9692 0.0000
vt 0.6501 0.0777 0.0000
vt 0.5066 0.0777 0.0000
vt 0.6501 0.0185 0.0000
vt 0.8467 0.9560 0.0000
vt 0.9025 0.9791 0.0000
vt 0.9025 0.8447 0.0000
vt 0.9025 0.8217 0.0000
vt 0.7936 0.2207 0.0000
vt 0.7936 0.3638 0.0000
vt 0.8531 0.2207 0.0000
vt 0.7936 0.0777 0.0000
vt 0.8467 0.8447 0.0000
vt 0.9583 0.9004 0.0000
vt 0.9583 0.9560 0.0000
vt 0.9815 0.9004 0.0000
vt 0.9583 0.8447 0.0000
# 188 texture coords

g Cylinder001
f 1/1/1 2/2/1 3/3/1 
f 4/4/2 5/5/2 6/7/2 
f 5/5/3 7/8/3 8/9/3 6/7/3 
f 3/3/4 2/2/4 9/10/4 
f 10/12/5 11/13/5 12/14/5 13/11/5 
f 6/7/6 8/9/6 14/15/6 11/13/6 
f 9/10/7 15/16/7 16/18/7 
f 12/14/8 17/19/8 18/20/8 
f 19/26/9 20/27/9 21/30/9 
f 22/31/10 23/32/10 24/33/10 
f 17/19/11 22/31/11 24/33/11 25/35/11 
f 26/34/12 17/19/12 25/35/12 
f 27/24/13 28/25/13 29/28/13 
f 17/17/14 26/21/14 28/25/14 30/23/14 
f 26/21/15 31/22/15 29/90/15 28/25/15 
f 31/29/16 32/88/16 27/24/16 29/87/16 
f 13/11/17 12/14/17 15/16/17 
f 18/89/18 27/24/18 32/88/18 
f 18/89/19 17/17/19 30/23/19 27/24/19 
f 27/24/20 30/23/20 28/25/20 
f 32/36/21 15/16/21 33/37/21 34/38/21 
f 15/16/22 12/14/22 35/39/22 33/37/22 
f 12/14/23 18/20/23 36/40/23 35/39/23 
f 18/20/24 32/36/24 34/38/24 
f 34/38/25 33/37/25 37/43/25 38/59/25 
f 33/37/26 35/39/26 37/43/26 
f 35/39/27 36/40/27 38/59/27 37/43/27 
f 36/40/28 34/38/28 38/59/28 
f 34/38/29 36/40/29 18/20/29 
f 14/78/30 39/60/30 40/61/30 11/13/30 
f 23/32/31 22/31/31 21/30/31 20/27/31 
f 22/31/32 11/13/32 40/61/32 21/30/32 
f 19/26/33 39/60/33 41/62/33 
f 21/30/34 40/61/34 19/26/34 
f 39/60/35 19/26/35 40/61/35 
f 42/42/36 43/44/36 13/45/36 
f 10/12/37 6/7/37 11/13/37 
f 13/11/38 2/2/38 44/72/38 
f 10/46/39 13/45/39 43/44/39 
f 13/45/40 44/47/40 42/42/40 
f 44/6/41 10/41/41 45/48/41 46/49/41 
f 43/44/42 47/53/42 45/54/42 10/46/42 
f 42/42/43 48/75/43 47/53/43 43/44/43 
f 42/42/44 44/47/44 46/76/44 48/75/44 
f 2/2/45 13/11/45 15/16/45 
f 4/4/46 44/72/46 2/2/46 
f 46/49/47 45/48/47 49/52/47 
f 45/54/48 50/77/48 51/79/48 52/80/48 
f 50/77/49 53/81/49 54/82/49 51/79/49 
f 53/81/50 46/76/50 55/83/50 54/82/50 
f 47/53/51 50/77/51 45/54/51 
f 48/75/52 53/81/52 50/77/52 47/53/52 
f 46/76/53 53/81/53 48/75/53 
f 45/48/54 52/55/54 49/52/54 
f 49/52/55 55/56/55 46/49/55 
f 55/50/56 49/51/56 56/57/56 
f 49/51/57 51/58/57 56/57/57 
f 51/58/58 54/84/58 56/57/58 
f 54/84/59 55/50/59 56/57/59 
f 52/85/60 51/58/60 57/86/60 
f 51/58/61 49/51/61 57/86/61 
f 49/51/62 52/85/62 57/86/62 
f 6/7/63 10/12/63 44/72/63 4/4/63 
f 12/14/64 11/13/64 22/31/64 17/19/64 
f 2/2/65 1/1/65 4/4/65 
f 32/36/66 31/73/66 16/18/66 15/16/66 
f 2/2/67 15/16/67 9/10/67 
f 7/8/68 5/5/68 4/4/68 1/1/68 
f 58/74/69 31/73/69 26/34/69 25/35/69 
f 20/27/70 19/26/70 41/62/70 
f 16/18/71 31/73/71 58/74/71 
f 59/63/72 60/64/72 61/65/72 
f 60/64/73 62/66/73 63/67/73 
f 60/64/74 63/67/74 61/65/74 
f 61/65/75 63/67/75 64/91/75 
f 59/63/76 61/65/76 65/173/76 
f 61/65/77 64/91/77 66/174/77 
f 61/65/78 66/174/78 65/173/78 
f 65/173/79 66/174/79 67/175/79 
f 68/68/80 69/69/80 70/70/80 
f 69/69/81 64/71/81 63/176/81 
f 69/69/82 63/176/82 70/70/82 
f 70/70/83 63/176/83 62/177/83 
f 68/68/84 71/178/84 69/69/84 
f 71/178/85 67/179/85 66/184/85 
f 71/178/86 66/184/86 69/69/86 
f 69/69/87 66/184/87 64/71/87 
f 1/92/88 3/94/88 72/93/88 
f 73/95/89 74/97/89 75/96/89 
f 75/96/90 74/97/90 8/99/90 7/98/90 
f 3/94/91 9/100/91 72/93/91 
f 76/102/92 77/101/92 78/104/92 79/103/92 
f 74/97/93 79/103/93 14/105/93 8/99/93 
f 9/100/94 16/107/94 80/106/94 
f 78/104/95 81/109/95 82/108/95 
f 83/110/96 84/112/96 20/111/96 
f 85/113/10 24/115/10 23/114/10 
f 24/115/97 85/113/97 82/108/97 25/117/97 
f 86/116/98 25/117/98 82/108/98 
f 87/118/99 88/120/99 89/119/99 
f 82/121/100 90/123/100 89/119/100 86/122/100 
f 86/122/101 89/119/101 88/125/101 91/124/101 
f 91/126/102 88/128/102 87/118/102 92/127/102 
f 77/101/103 80/106/103 78/104/103 
f 81/129/104 92/127/104 87/118/104 
f 81/129/105 87/118/105 90/123/105 82/121/105 
f 87/118/106 89/119/106 90/123/106 
f 92/130/107 93/132/107 94/131/107 80/106/107 
f 80/106/108 94/131/108 95/133/108 78/104/108 
f 78/104/109 95/133/109 96/134/109 81/109/109 
f 81/109/110 93/132/110 92/130/110 
f 93/132/111 97/136/111 98/135/111 94/131/111 
f 94/131/112 98/135/112 95/133/112 
f 95/133/113 98/135/113 97/136/113 96/134/113 
f 96/134/114 97/136/114 93/132/114 
f 93/132/115 81/109/115 96/134/115 
f 14/137/116 79/103/116 99/139/116 39/138/116 
f 23/114/117 20/111/117 84/112/117 85/113/117 
f 85/113/118 84/112/118 99/139/118 79/103/118 
f 83/110/119 41/140/119 39/138/119 
f 84/112/120 83/110/120 99/139/120 
f 39/138/121 99/139/121 83/110/121 
f 100/141/122 77/143/122 101/142/122 
f 76/102/123 79/103/123 74/97/123 
f 77/101/124 102/144/124 72/93/124 
f 76/145/125 101/142/125 77/143/125 
f 77/143/126 100/141/126 102/146/126 
f 102/147/127 103/150/127 104/149/127 76/148/127 
f 101/142/128 76/145/128 104/152/128 105/151/128 
f 100/141/129 101/142/129 105/151/129 106/153/129 
f 100/141/130 106/153/130 103/154/130 102/146/130 
f 72/93/131 80/106/131 77/101/131 
f 73/95/132 72/93/132 102/144/132 
f 103/150/133 107/155/133 104/149/133 
f 104/152/134 108/158/134 109/157/134 110/156/134 
f 110/156/135 109/157/135 111/160/135 112/159/135 
f 112/159/136 111/160/136 113/161/136 103/154/136 
f 105/151/137 104/152/137 110/156/137 
f 106/153/138 105/151/138 110/156/138 112/159/138 
f 103/154/139 106/153/139 112/159/139 
f 104/149/140 107/155/140 108/162/140 
f 107/155/141 103/150/141 113/163/141 
f 113/164/142 114/166/142 107/165/142 
f 107/165/143 114/166/143 109/167/143 
f 109/167/144 114/166/144 111/168/144 
f 111/168/145 114/166/145 113/164/145 
f 108/169/146 115/170/146 109/167/146 
f 109/167/147 115/170/147 107/165/147 
f 107/165/148 115/170/148 108/169/148 
f 74/97/149 73/95/149 102/144/149 76/102/149 
f 78/104/150 82/108/150 85/113/150 79/103/150 
f 72/93/151 73/95/151 1/92/151 
f 92/130/152 80/106/152 16/107/152 91/171/152 
f 72/93/153 9/100/153 80/106/153 
f 7/98/154 1/92/154 73/95/154 75/96/154 
f 58/172/155 25/117/155 86/116/155 91/171/155 
f 20/111/156 41/140/156 83/110/156 
f 16/107/157 58/172/157 91/171/157 
f 59/63/158 116/180/158 60/64/158 
f 60/64/159 117/181/159 62/66/159 
f 60/64/160 116/180/160 117/181/160 
f 116/180/161 118/182/161 117/181/161 
f 59/63/162 65/173/162 116/180/162 
f 116/180/163 119/183/163 118/182/163 
f 116/180/164 65/173/164 119/183/164 
f 65/173/165 67/175/165 119/183/165 
f 68/68/166 70/70/166 120/185/166 
f 120/185/167 117/186/167 118/187/167 
f 120/185/168 70/70/168 117/186/168 
f 70/70/169 62/177/169 117/186/169 
f 68/68/170 120/185/170 71/178/170 
f 71/178/171 119/188/171 67/179/171 
f 71/178/172 120/185/172 119/188/172 
f 120/185/173 118/187/173 119/188/173 
# 58 polygons - 116 triangles

