<?xml version="1.0" encoding="utf-8"?>
<!-- Generator: Adobe Illustrator 16.0.2, SVG Export Plug-In . SVG Version: 6.00 Build 0)  -->
<!DOCTYPE svg PUBLIC "-//W3C//DTD SVG 1.1//EN" "http://www.w3.org/Graphics/SVG/1.1/DTD/svg11.dtd">
<svg version="1.1" id="Layer_1" xmlns="http://www.w3.org/2000/svg" xmlns:xlink="http://www.w3.org/1999/xlink" x="0px" y="0px"
	 width="50px" height="50px" viewBox="0 0 50 50" enable-background="new 0 0 50 50" xml:space="preserve">
<circle cx="25" cy="25" r="25"/>
<g>
	<path fill="none" stroke="#FFFFFF" stroke-width="1.75" stroke-linejoin="bevel" stroke-miterlimit="10" d="M32.2,40.6
		c1.7,0,2.9-0.3,3.7-1c0.7-0.7,1.1-1.8,1.1-3.3v-5.7c0-1.8,0.3-3.1,0.9-3.8c0.6-0.7,1.7-1.3,3.1-1.7c-1.4-0.4-2.5-0.9-3.1-1.7
		c-0.6-0.8-0.9-2-0.9-3.8v-5.8c0-1.5-0.4-2.6-1.1-3.3c-0.7-0.7-2-1-3.7-1"/>
</g>
<g>
	<polyline fill="#E04C0A" points="12.8,26.8 12.8,40.2 20.8,44.9 28.9,40.2 28.9,26.8 	"/>
	<polygon fill="#EDED4F" points="12.8,26.8 12.8,10.5 20.8,5.8 28.9,10.5 28.9,26.8 20.8,31.4 	"/>
	<polygon fill="#28B3DD" points="28.9,26.8 20.8,31.4 12.8,26.8 12.8,21.4 20.8,26 28.9,21.4 	"/>
	<path fill="none" stroke="#231F20" stroke-miterlimit="10" d="M20.8,35.6"/>
	<polygon fill="#C1B011" points="12.8,10.5 20.8,15.2 20.8,26 12.8,21.4 	"/>
	<polygon fill="#2E7282" points="20.8,26 20.8,31.4 12.8,26.8 12.8,21.4 	"/>
	<polygon fill="#F4731C" points="20.8,31.4 20.8,44.9 28.9,40.2 28.9,26.8 	"/>
	<polygon fill="#D0DD22" points="28.9,10.5 20.8,15.2 12.8,10.5 20.8,5.8 	"/>
</g>
</svg>
