<?xml version="1.0" encoding="utf-8"?>
<!DOCTYPE svg PUBLIC "-//W3C//DTD SVG 1.1//EN" "http://www.w3.org/Graphics/SVG/1.1/DTD/svg11.dtd">
<svg version="1.1" id="Layer_1" xmlns="http://www.w3.org/2000/svg" xmlns:xlink="http://www.w3.org/1999/xlink" x="0px" y="0px"
	 width="50px" height="50px" viewBox="0 0 50 50" enable-background="new 0 0 50 50" xml:space="preserve">
<g>
	<polyline fill="#E04C0A" points="35,30.9 35,39.2 24.9,44.9 15,39.2 15,30.9 	"/>
	<polygon fill="#E04C0A" points="35,30.9 24.9,36.7 15,30.9 24.9,25.1 	"/>
	<polygon fill="#F4731C" points="24.9,36.7 24.9,44.9 35,39.2 35,30.9 	"/>

	<animateMotion id = "a1" type = "translate" from = "0,0" to = "0,3.5" begin = "0s;a2.end" dur = "1s"/>
	<animateMotion id = "a2" type = "translate" from = "0,3.5" to = "0,0" begin = "a1.end" dur = "1s"/>
</g>
<g>
	<polygon fill="#2E7282" points="35,23.6 24.9,29.4 15,23.6 24.9,17.8 	"/>
	<polygon fill="#28B3DD" points="35,27.9 24.9,33.6 15,27.9 15,23.6 24.9,29.4 35,23.6 	"/>
	<polygon fill="#2E7282" points="24.9,29.4 24.9,33.6 15,27.9 15,23.6 	"/>
</g>
<g>
	<polygon fill="#DBDB42" points="15,20.5 15,10.8 24.9,5.1 35,10.8 35,20.5 24.9,26.2 	"/>
	<polygon fill="#C1B011" points="15,10.8 24.9,16.7 24.9,26.2 15,20.5 	"/>
	<polygon fill="#FFF988" points="35,10.8 24.9,16.7 15,10.8 24.9,5.1 	"/>
</g>
</svg>
