<?xml version="1.0" encoding="utf-8"?>
<!-- Generator: Adobe Illustrator 16.0.2, SVG Export Plug-In . SVG Version: 6.00 Build 0)  -->
<!DOCTYPE svg PUBLIC "-//W3C//DTD SVG 1.1//EN" "http://www.w3.org/Graphics/SVG/1.1/DTD/svg11.dtd">
<svg version="1.1" id="Layer_1" xmlns="http://www.w3.org/2000/svg" xmlns:xlink="http://www.w3.org/1999/xlink" x="0px" y="0px"
	 width="50px" height="50px" viewBox="0 0 50 50" enable-background="new 0 0 50 50" xml:space="preserve">
<g>
	<path fill="#FFFFFF" d="M23.3,30.2c0-1.7,0.5-3.3,1.6-4.8c0.5-0.6,1-1.2,1.5-1.8c2.1-2.2,3.1-4.7,3.1-7.4c0-2.2-0.9-3.5-2.7-4.1
		c-0.5-0.2-1.1-0.3-1.6-0.3c-1.1,0-2.1,0.2-3.1,0.7s-1.6,1.1-1.9,2c0.7,0.2,1.2,0.6,1.6,1.1c0.4,0.5,0.6,1.2,0.6,2.1
		s-0.3,1.6-0.8,2.2c-0.5,0.6-1.3,0.9-2.4,0.9c-1.5,0-2.5-0.7-3.1-2c-0.2-0.5-0.3-1.1-0.3-1.9c0-0.8,0.2-1.6,0.6-2.5s1-1.7,1.8-2.5
		c1.9-1.7,4.1-2.5,6.8-2.5c2.7,0,4.9,0.7,6.6,2.2c1.7,1.5,2.5,3.4,2.5,5.8c0,2.4-1.4,4.8-4.1,7.4c-1.7,1.6-2.8,2.9-3.4,3.8
		c-0.6,0.9-0.9,1.8-1,2.7h-2.4V30.2z M21.6,37.6c0-0.9,0.3-1.6,0.9-2.2c0.6-0.6,1.4-0.9,2.2-0.9c0.9,0,1.6,0.3,2.2,0.9
		c0.6,0.6,0.9,1.4,0.9,2.2s-0.3,1.6-0.9,2.2c-0.6,0.6-1.4,0.9-2.2,0.9c-0.9,0-1.6-0.3-2.2-0.9C21.9,39.2,21.6,38.4,21.6,37.6z"/>
</g>
</svg>
