<?xml version="1.0" encoding="utf-8"?>
<!-- Generator: Adobe Illustrator 16.0.2, SVG Export Plug-In . SVG Version: 6.00 Build 0)  -->
<!DOCTYPE svg PUBLIC "-//W3C//DTD SVG 1.1//EN" "http://www.w3.org/Graphics/SVG/1.1/DTD/svg11.dtd">
<svg version="1.1" id="Layer_1" xmlns="http://www.w3.org/2000/svg" xmlns:xlink="http://www.w3.org/1999/xlink" x="0px" y="0px"
	 width="50px" height="50px" viewBox="0 0 50 50" enable-background="new 0 0 50 50" xml:space="preserve">
<g>
	<path fill="none" stroke="#302723" stroke-width="2" stroke-miterlimit="10" d="M32.95,20.75c6.1,0,7.8,4.6,7,8.1l-0.4,0.801
		c7.3,0,6.638,13.49,1,14.1c-5.865,0.634-28.3,0-28.3,0c-11.2,0-10.6-12.4-1.7-13.1l-0.3-0.101c-2.5-1.899-0.8-8,5.6-9.4l0,0
		c-2.4-2.7-0.517-7.983,6.905-8.248c3.349-0.119,5.203-0.569,5.37-2.694c0.187-2.372-4.708-5.75-1.917-5.75
		C33.167,5.167,36.35,15.15,33.35,20.15C33.25,20.25,33.05,20.55,32.95,20.75z"/>
	<radialGradient id="SVGID_1_" cx="54.417" cy="33.75" r="36.3993" gradientUnits="userSpaceOnUse">
		<stop  offset="0" style="stop-color:#9F7C45"/>
		<stop  offset="1" style="stop-color:#79513A"/>
	</radialGradient>
	<path fill="url(#SVGID_1_)" d="M32.95,20.75c6.1,0,7.8,4.6,7,8.1l-0.4,0.801c7.3,0,6.638,13.49,1,14.1c-5.865,0.634-28.3,0-28.3,0
		c-11.2,0-10.6-12.4-1.7-13.1l-0.3-0.101c-2.5-1.899-0.8-8,5.6-9.4l0,0c-2.4-2.7-0.517-7.983,6.905-8.248
		c3.349-0.119,5.203-0.569,5.37-2.694c0.187-2.372-4.708-5.75-1.917-5.75C33.167,5.167,36.35,15.15,33.35,20.15
		C33.25,20.25,33.05,20.55,32.95,20.75z"/>
</g>
<g>
	<radialGradient id="SVGID_2_" cx="12.0498" cy="43.75" r="0" gradientUnits="userSpaceOnUse">
		<stop  offset="0.8177" style="stop-color:#2B241F;stop-opacity:0.9655"/>
		<stop  offset="1" style="stop-color:#2B241F;stop-opacity:0"/>
	</radialGradient>
	<path fill="url(#SVGID_2_)" d="M12.05,43.75"/>
	<radialGradient id="SVGID_3_" cx="40.3496" cy="43.75" r="0" gradientUnits="userSpaceOnUse">
		<stop  offset="0.8177" style="stop-color:#2B241F;stop-opacity:0.9655"/>
		<stop  offset="1" style="stop-color:#2B241F;stop-opacity:0"/>
	</radialGradient>
	<path fill="url(#SVGID_3_)" d="M40.35,43.75"/>
	<radialGradient id="SVGID_4_" cx="39.3496" cy="29.6504" r="0" gradientUnits="userSpaceOnUse">
		<stop  offset="0.8177" style="stop-color:#2B241F;stop-opacity:0.9655"/>
		<stop  offset="1" style="stop-color:#2B241F;stop-opacity:0"/>
	</radialGradient>
	<path fill="url(#SVGID_4_)" d="M39.35,29.65"/>
	<radialGradient id="SVGID_5_" cx="10.0498" cy="30.5498" r="0" gradientUnits="userSpaceOnUse">
		<stop  offset="0.8177" style="stop-color:#2B241F;stop-opacity:0.9655"/>
		<stop  offset="1" style="stop-color:#2B241F;stop-opacity:0"/>
	</radialGradient>
	<path fill="url(#SVGID_5_)" d="M10.05,30.55"/>
	<radialGradient id="SVGID_6_" cx="27.5" cy="-21.228" r="61.2915" gradientUnits="userSpaceOnUse">
		<stop  offset="0.8177" style="stop-color:#2B241F;stop-opacity:0.9655"/>
		<stop  offset="1" style="stop-color:#2B241F;stop-opacity:0"/>
	</radialGradient>
	<path opacity="0.8" fill="url(#SVGID_6_)" d="M36.826,32.419c-3.46,1.854-9.451,3.362-20.876-0.869
		c-6.886-2.551-10.935,0.606-11.888,4.044c3.737,1.385,11.333,4.759,20.813,5c7.533,0.192,17.914-2.179,19.795-6.332
		c-1.389-4.934-4.279-4.512-5.12-4.611C39.55,29.65,38.926,31.294,36.826,32.419z"/>
</g>
<g>
	<g>
		<path fill="#2B241F" d="M12.583,43.75c0,0-0.208,0.001-0.596,0.003c-0.389,0.018-0.958-0.013-1.689-0.096
			c-0.717-0.129-1.606-0.28-2.549-0.712c-0.943-0.409-1.963-1.066-2.771-2.091c-0.814-1.005-1.37-2.397-1.39-3.908
			c-0.031-1.5,0.5-3.144,1.643-4.364c1.108-1.245,2.743-2.045,4.436-2.289c1.699-0.266,3.452-0.086,5.096,0.362
			c1.658,0.507,3.136,1.103,4.707,1.541c1.551,0.457,3.098,0.833,4.608,1.109c3.017,0.554,5.907,0.741,8.329,0.367
			c1.206-0.189,2.298-0.469,3.214-0.855c0.918-0.379,1.664-0.839,2.226-1.284c0.561-0.448,0.952-0.861,1.207-1.152
			c0.242-0.304,0.371-0.466,0.371-0.466s-0.114,0.173-0.329,0.498c-0.232,0.312-0.578,0.775-1.125,1.267
			c-1.073,0.987-2.97,2.09-5.47,2.542c-2.485,0.472-5.472,0.455-8.57-0.065c-1.55-0.262-3.132-0.624-4.717-1.067
			c-1.58-0.418-3.194-1.034-4.712-1.473c-1.546-0.429-3.161-0.62-4.693-0.397c-1.529,0.198-2.958,0.885-3.936,1.95
			C5.37,33.689,5,34.311,4.743,34.956c-0.26,0.645-0.418,1.325-0.421,1.995c-0.039,1.338,0.401,2.613,1.107,3.563
			c0.706,0.958,1.609,1.637,2.48,2.093c0.871,0.475,1.727,0.684,2.422,0.858c0.705,0.121,1.268,0.219,1.658,0.233
			C12.377,43.732,12.583,43.75,12.583,43.75z"/>
	</g>
	<g>
		<path fill="none" d="M40.1,28.9"/>
	</g>
	<g>
		<path fill="#2B241F" d="M10.347,31.107c-0.121-0.056-0.242-0.103-0.426-0.227c-0.167-0.109-0.285-0.218-0.405-0.346
			c-0.239-0.25-0.405-0.542-0.528-0.839c-0.249-0.598-0.304-1.225-0.271-1.826c0.076-1.209,0.563-2.331,1.249-3.271
			c1.401-1.899,3.589-2.966,5.768-3.454l0.097-0.021l0.086,0.028c2.758,0.887,5.652,1.391,8.554,1.313
			c1.45-0.036,2.897-0.214,4.316-0.529c0.709-0.161,1.41-0.354,2.105-0.57c0.691-0.227,1.375-0.479,2.05-0.754l0.033-0.014
			l0.03,0.001c1.123,0.042,2.254,0.224,3.306,0.642c1.046,0.424,2,1.112,2.658,2.034c0.66,0.918,1.031,2.02,1.137,3.132
			c0.054,0.557,0.046,1.118-0.026,1.672c-0.086,0.546-0.198,1.115-0.528,1.57c0.319-0.462,0.417-1.03,0.491-1.575
			c0.059-0.552,0.054-1.109-0.012-1.659c-0.129-1.098-0.521-2.171-1.183-3.05c-0.661-0.883-1.598-1.525-2.619-1.913
			c-1.028-0.382-2.133-0.535-3.23-0.552l0.063-0.012c-0.677,0.294-1.362,0.565-2.059,0.811c-0.7,0.235-1.407,0.447-2.125,0.626
			c-1.436,0.353-2.908,0.568-4.388,0.638c-2.964,0.146-5.94-0.304-8.778-1.147l0.183,0.006c-2.063,0.511-4.045,1.565-5.239,3.271
			c-0.586,0.841-0.978,1.831-1.015,2.823c-0.017,0.491,0.046,0.986,0.234,1.401c0.091,0.207,0.208,0.397,0.354,0.54
			c0.066,0.071,0.159,0.146,0.222,0.184c0.04,0.037,0.173,0.097,0.304,0.15L10.347,31.107z"/>
	</g>
</g>
<radialGradient id="SVGID_7_" cx="23.7852" cy="-13.8662" r="41.9451" gradientUnits="userSpaceOnUse">
	<stop  offset="0.6868" style="stop-color:#2B241F;stop-opacity:0.9655"/>
	<stop  offset="0.7605" style="stop-color:#2B241F;stop-opacity:0.9655"/>
	<stop  offset="1" style="stop-color:#2B241F;stop-opacity:0"/>
</radialGradient>
<path fill="url(#SVGID_7_)" d="M32.95,20.75c1.253,0,5.511,0.268,6.771,4.436c-9.427,6.059-30.287,1.167-30.204,0.938
	s1.587-3.976,6.333-4.974C24.5,23.781,29.688,22.109,32.95,20.75z"/>
</svg>
