<?xml version="1.0" encoding="utf-8"?>
<!-- Generator: Adobe Illustrator 16.0.2, SVG Export Plug-In . SVG Version: 6.00 Build 0)  -->
<!DOCTYPE svg PUBLIC "-//W3C//DTD SVG 1.1//EN" "http://www.w3.org/Graphics/SVG/1.1/DTD/svg11.dtd">
<svg version="1.1" id="Layer_1" xmlns="http://www.w3.org/2000/svg" xmlns:xlink="http://www.w3.org/1999/xlink" x="0px" y="0px"
	 width="50px" height="50px" viewBox="0 0 50 50" enable-background="new 0 0 50 50" xml:space="preserve">
<g>
	<path fill="#7F6147" d="M33.7,25c6.1,0,7.8,4.6,7,8.1l-0.4,0.8c7.3,0,6.9,14.1,1,14.1c-5.9,0-28.3,0-28.3,0
		c-11.2,0-10.6-12.4-1.7-13.1L11,34.8c-2.5-1.9-1.5-7.7,4.9-9.1l0.7-0.3c-2.4-2.7-0.8-8.3,8.2-8.3c6.9,0,6.1-6.2,4.2-6.2
		c5.5,0.7,8.1,8.5,5.1,13.5C34,24.5,33.8,24.8,33.7,25z"/>
</g>
<g>
	<path fill="none" stroke="#2B241F" stroke-width="1.75" stroke-miterlimit="10" d="M40.1,33.9c7.3,0,6.9,14.1,1,14.1
		s-28.3,0-28.3,0c-13.2,0-10.1-17.2,3.9-12.2c4.5,1.6,7.8,1.9,9.6,1.9"/>
	<path fill="none" stroke="#2B241F" stroke-width="1.75" stroke-miterlimit="10" d="M33.4,25c8.9,0,8.5,9.8,4.5,11.5"/>
	<path fill="none" stroke="#2B241F" stroke-width="1.75" stroke-miterlimit="10" d="M10.8,34.8c-2.8-2.2-1.2-9.5,8.1-9.5h1.7"/>
	<path fill="none" stroke="#2B241F" stroke-width="1.75" stroke-miterlimit="10" d="M16.4,25.3C14,22.6,15.6,17,24.6,17
		c6.9,0,6.1-6.2,4.2-6.2C34.5,11.5,37,20,33.4,25c-1.2,1.7-3.4,2-5.9,2"/>
</g>
</svg>
