<?xml version="1.0" encoding="utf-8"?>
<!-- Generator: Adobe Illustrator 16.0.2, SVG Export Plug-In . SVG Version: 6.00 Build 0)  -->
<!DOCTYPE svg PUBLIC "-//W3C//DTD SVG 1.1//EN" "http://www.w3.org/Graphics/SVG/1.1/DTD/svg11.dtd">
<svg version="1.1" id="Layer_1" xmlns="http://www.w3.org/2000/svg" xmlns:xlink="http://www.w3.org/1999/xlink" x="0px" y="0px"
	 width="50px" height="50px" viewBox="0 0 50 50" enable-background="new 0 0 50 50" xml:space="preserve">
<path fill="none" stroke="#231F20" stroke-width="2.5" stroke-miterlimit="10" d="M73.4,25.3c2.1-1.8,3.4-4.2,3.4-6.9
	c0-5.6-5.7-10.1-12.7-10.1s-12.7,4.5-12.7,10.1s5.7,10.1,12.7,10.1c1,0,2-0.1,2.9-0.3l6.9,4.8L73.4,25.3z"/>
<path fill="none" stroke="#231F20" stroke-width="2.5" stroke-miterlimit="10" d="M36.9,15.1H13.2c-1.6,0-2.9,1.3-2.9,2.9v10.6
	c0,1.6,1.3,2.9,2.9,2.9h7.3v6.3l6.9-6.3h9.5c1.6,0,2.9-1.3,2.9-2.9V18C39.8,16.4,38.5,15.1,36.9,15.1z"/>
</svg>
