
<svg version="1.1" id = "shit" xmlns="http://www.w3.org/2000/svg" xmlns:xlink="http://www.w3.org/1999/xlink" x="0px" y="0px" width="50px" height="50px" viewBox="0 0 50 50" enable-background="new 0 0 50 50" xml:space="preserve">

<mask id = "clip">
	<circle cx="25" cy="25" r="21" fill="#FFF">
		<animateMotion type = "translate" to = "14,-5" begin = "1s" dur = "0.5s" fill = "freeze" />
	</circle>
</mask>


<path fill="none" stroke="#231F20" stroke-width="2.5" stroke-miterlimit="10" d="M36.9,15.1H13.2c-1.6,0-2.9,1.3-2.9,2.9v10.6c0,1.6,1.3,2.9,2.9,2.9h7.3v6.3l6.9-6.3h9.5c1.6,0,2.9-1.3,2.9-2.9V18C39.8,16.4,38.5,15.1,36.9,15.1z" mask = "url(#mask)">
	<animateMotion type = "translate" from="0,0" to="-1,9" begin="1s" dur="0.5s" fill = "freeze" />
	<animateTransform attributeName = "transform" type="scale" from="1" to="0.85" 
		begin = "1s" dur="0.5s" fill="freeze"/>

</path>

<g transform = "scale(0.9) translate(5,0)" mask="url(#clip)">
<path fill="#FFFFFF" d="M54.6,37.7l-13.1-9.1c-0.7,0.1-1.5,0.1-2.2,0.1c-9.9,0-17.9-6.8-17.9-15.1s8-15.1,17.9-15.1s17.9,6.8,17.9,15.1c0,3.3-1.3,6.5-3.6,9.1L54.6,37.7z" />

<path fill="none" stroke="#231F20" stroke-width="2.5" stroke-miterlimit="10" d="M49.5,21.1c2.3-2,3.7-4.6,3.7-7.5
	c0-6.1-6.2-11.1-13.9-11.1s-13.9,5-13.9,11.1c0,6.1,6.2,11.1,13.9,11.1c1.1,0,2.2-0.1,3.2-0.3l7.6,5.2L49.5,21.1z"/>

<animateMotion type = "translate" to="-11,6" begin="1s" dur="0.5s" fill="freeze" />

</g>
</svg>
