<?xml version="1.0" encoding="utf-8"?>
<!-- Generator: Adobe Illustrator 16.0.2, SVG Export Plug-In . SVG Version: 6.00 Build 0)  -->
<!DOCTYPE svg PUBLIC "-//W3C//DTD SVG 1.1//EN" "http://www.w3.org/Graphics/SVG/1.1/DTD/svg11.dtd">
<svg version="1.1" id="Layer_1" xmlns="http://www.w3.org/2000/svg" xmlns:xlink="http://www.w3.org/1999/xlink" x="0px" y="0px"
	 width="50px" height="50px" viewBox="0 0 50 50" enable-background="new 0 0 50 50" xml:space="preserve">
<g>
	<path fill="#FFFFFF" stroke="#000000" stroke-width="1.75" stroke-miterlimit="10" d="M15.1,36.8"/>
	<path fill="#FFFFFF" stroke="#000000" stroke-width="1.75" stroke-miterlimit="10" d="M21.1,40.9h8.6c1.2,0,5.1-3.4,7-3.4
		c1.8,0,4.4,0,4.4,0V21.9h-5.3c0,0-0.8,0-1.5-0.5c0,0-5.6-4.8-6-5.5c-0.9-1.7-2.9-9.4-2.9-9.4C25,5,24,4.2,21.9,4.2
		c-2.7,0-3.3,0.8-3.3,2.3c0,2.3,2.3,9.8,2.3,9.8c0.4,1.4-0.5,1.6-1.6,1.6s-9.9,0.1-9.9,0.1c-2.4,0-2.4,8.7,0,8.7h8.9h-7.6
		c-2.4,0-2.1,7.6,0.1,7.6H20h-7.2c-2.4,0-2.1,6.7-0.1,6.7H21.1c0.4,0.1,0.8-0.2,0.8-0.8c0-0.6,0-3.2-2.5-3.2"/>
	<path fill="none" stroke="#000000" stroke-width="1.75" stroke-miterlimit="10" d="M20,34.2c0.8,0,0.9-0.8,0.9-0.8
		c0-3.1-0.8-4.3-3.1-4.3"/>
	<path fill="none" stroke="#000000" stroke-width="1.75" stroke-miterlimit="10" d="M18.1,26.6c0.8,0,0.7-0.9,0.7-1.6
		s-0.9-3.7-4.1-3.7"/>
	<path fill="none" stroke="#000000" stroke-width="1.75" stroke-miterlimit="10" d="M20.9,17.3c-1.3,2.8,1.8,8.5,7,8.5"/>
</g>
<g display="none">
	<polygon display="inline" fill="#FFFFFF" points="20,19.3 13.8,28.9 21.6,39.5 32.3,36.2 27.4,22.3 	"/>
	<path display="inline" fill="#FFFFFF" stroke="#000000" stroke-width="1.75" stroke-miterlimit="10" d="M28,38.9
		c3.5,0,5.8-3.4,7.2-3.4s6.3,0,6.3,0V22c0,0-4.1,0-5.4,0s-9.5-5-9.5-5"/>
	<path display="inline" fill="#FFFFFF" stroke="#000000" stroke-width="1.75" stroke-miterlimit="10" d="M34.8,25.4"/>
	<path display="inline" fill="#FFFFFF" stroke="#000000" stroke-width="1.75" stroke-miterlimit="10" d="M14.8,39
		c-1.2,1.1,2.3,4.4,4.5,3.9c2.8-0.6,5.6-1.4,6.3-1.7c2.6-0.8,2.9-2.8,1.5-3.6"/>
	<path display="inline" fill="#FFFFFF" stroke="#000000" stroke-width="1.75" stroke-miterlimit="10" d="M24.9,33.9
		c0,0,2.2,2.3-1,3.5c-2.7,1-3.9,1.2-7.5,2c-3.2,0.7-8-5.5-6.2-7.8"/>
	<path display="inline" fill="#FFFFFF" stroke="#000000" stroke-width="1.75" stroke-miterlimit="10" d="M15.9,28.3
		c0,0,7.8-1.7,7.2,3.8c0,0-8,3.2-10.4,2.3c-2.4-0.9-4.3-6.1-4-8.5c0.3-2,9.6-6.6,11.4-6.6"/>
	<path display="inline" fill="#FFFFFF" stroke="#000000" stroke-width="1.75" stroke-miterlimit="10" d="M23.4,25.3
		c-3.3-1.3-5.2-9.4-5.1-12c0-2.3,5.9-3,7,0.2s1.3,3.6,1.7,4.8s1.2,3.2,2.7,4.1"/>
</g>
<g display="none">
	<path display="inline" fill="#FFFFFF" stroke="#000000" stroke-width="1.75" stroke-miterlimit="10" d="M23.2,35.2
		c3.5,1,11.4,0.4,13.7-1.2l0.4-9.6L13.8,26L23.2,35.2z"/>
	<path display="inline" fill="#FFFFFF" stroke="#000000" stroke-width="1.75" stroke-miterlimit="10" d="M11.3,30.9
		c-0.6,0.7-0.8,2.4,0,3c0.5,0.4,5.3,4.2,5.3,4.2c1.1,0.7,2.5,0.4,4.3-1c1.2-0.9,5.5-4.9,5.5-4.9"/>
	<path display="inline" fill="#FFFFFF" stroke="#000000" stroke-width="1.75" stroke-miterlimit="10" d="M25.6,29.1
		c0,0-4.5,4.6-5.6,5.3c-1.1,0.7-2,1.1-3.2,0.4l-6.7-5.4c-1-0.8-1.2-2.9-0.2-3.9c0.7-0.6,9.4-7.4,9.4-7.4s1-0.8,2.1-0.8
		c1.8,0,11,3.7,15.7,3.4l4.9,0v14.4c-6-0.1-7.2-3.3-9-4.7c-2.6,0.3-12.6-3.3-12.6-3.3s-2.5-1-1.5-3.9s4-1.8,4-1.8s9,2.4,9.7,2.5"/>
	<path display="inline" fill="#FFFFFF" stroke="#000000" stroke-width="1.75" stroke-miterlimit="10" d="M17.1,29.4
		c0,0,1.4-1.3,2.9-2.2"/>
	<path display="inline" fill="none" stroke="#000000" stroke-miterlimit="10" d="M18.7,24c0,0,2.9,0.9,3.5,1s1.1-0.2,1.3-0.5
		s0.9-2.2,0.9-2.2"/>
</g>
<g display="none">
	<rect x="16.7" y="26.2" display="inline" fill="#FFFFFF" width="4.3" height="2.8"/>
	<path display="inline" fill="#FFFFFF" stroke="#000000" stroke-width="1.75" stroke-miterlimit="10" d="M10.1,25.6
		c-1-0.8-1.2-2.9-0.2-3.9c0.7-0.6,9.4-7.4,9.4-7.4s1-0.8,2.1-0.8c1.8,0,13.5,3.6,16.8,3.6c1.9,0,3.8,0,3.8,0v14.2c0,0-4.2,0-5.8,0
		s-2.6,1.5-3.3,2.4c-1,1.3-3.3,5.5-6,8.4c-2,2.1-6.4-0.3-5.2-2.9c0.9-2,4.8-6.5,4.8-7.4c0-1.6-1.1-2.7-1.1-2.7"/>
	<path display="inline" fill="#FFFFFF" stroke="#000000" stroke-width="1.75" stroke-miterlimit="10" d="M17.1,30.4
		c0,0,0.9-1,2.4-1.8c3.1-1.7,6.5,0.3,6.1,1.5c0,0-4.5,4.6-5.6,5.3c-1.1,0.7-2,1.1-3.2,0.4l-6.7-5.4c-1-0.8-1.2-2.9-0.2-3.9
		c0.7-0.6,9.4-7.4,9.4-7.4s1-0.8,2.1-0.8"/>
</g>
<g display="none">
	<g display="inline">
		<path fill="#FFFFFF" stroke="#000000" stroke-width="1.75" stroke-miterlimit="10" d="M25.3,31.2c0,0-8.8,0-10.2,0
			c-2.4,0-6.1-4.6-3-8c0,0,8.4,0,9.4,0h-7.8c-3.2,0-2.9-8.3,0.4-8.3h9.9l-9.9,0c-1.3-2.1-0.7-6.5,1.7-6.5c0,0,11,0,13.5,0
			s3.6,3.3,5.4,3.3c1.4,0,5.6,0,5.6,0v17.9c0,0-7.2,4.3-8,6.3c0,0-1.6,2.6-3,5.7c-1.6,3.7-8.6,4.1-7.1-1
			C22.8,38.7,25.3,31.2,25.3,31.2z"/>
	</g>
	<path display="inline" fill="#FFFFFF" stroke="#000000" stroke-width="1.75" stroke-miterlimit="10" d="M25.3,31.2
		c2.1,0,4.8-0.6,5.6-1.5"/>
</g>
</svg>
